<svg width="613" height="631" viewBox="0 0 613 631" fill="none" xmlns="http://www.w3.org/2000/svg">
<path d="M562.223 337.47L562.225 337.481C564.183 347.849 565.226 358.144 565.226 368.236C565.194 409.686 543.357 450.349 508.55 486.833C473.754 523.307 426.082 555.51 374.607 580.022C323.134 604.532 267.909 621.326 218.036 627.019C168.129 632.715 123.742 627.279 93.7949 607.524L93.2443 608.359L93.7946 607.524C63.8261 587.77 40.2439 550.216 24.3456 503.518C8.45609 456.845 0.287312 401.166 1.04879 345.339C1.81029 289.511 11.5017 233.587 31.2891 186.411C51.0773 139.234 80.9306 100.875 121.979 80.0377L121.526 79.146L121.979 80.0377C193.854 43.5496 287.666 62.1246 370.618 108.771C453.548 155.405 525.299 229.925 553.018 304.8L553.039 304.857L553.066 304.911C556.604 311.787 559.274 320.843 562.223 337.47Z" stroke="#018A86" stroke-width="2"/>
<path d="M608.717 277.693L608.719 277.704C610.677 288.072 611.72 298.367 611.72 308.46C611.688 349.909 589.851 390.572 555.045 427.056C520.248 463.53 472.576 495.734 421.101 520.245C369.628 544.755 314.403 561.549 264.53 567.242C214.623 572.938 170.236 567.502 140.289 547.747L139.738 548.582L140.289 547.747C110.32 527.994 86.738 490.439 70.8398 443.741C54.9502 397.068 46.7815 341.389 47.5429 285.562C48.3044 229.734 57.9959 173.81 77.7832 126.635C97.5715 79.4571 127.425 41.0981 168.473 20.2608L168.02 19.3691L168.473 20.2608C240.348 -16.2272 334.16 2.34775 417.112 48.9941C500.042 95.6282 571.794 170.148 599.512 245.023L599.533 245.08L599.56 245.134C603.099 252.01 605.769 261.066 608.717 277.693Z" stroke="#B0CD56" stroke-width="2"/>
</svg>
