<?xml version="1.0" encoding="utf-8"?>
<!-- Generator: Adobe Illustrator 28.2.0, SVG Export Plug-In . SVG Version: 6.00 Build 0)  -->
<svg version="1.1" id="Layer_1" xmlns="http://www.w3.org/2000/svg" xmlns:xlink="http://www.w3.org/1999/xlink" x="0px" y="0px"
	 viewBox="0 0 26 31" style="enable-background:new 0 0 26 31;" xml:space="preserve">
<style type="text/css">
	.st0{stroke:#000000;}
</style>
<path class="st0" d="M4.2,4.1C6.5,1.8,9.7,0.5,13,0.5c3.3,0,6.5,1.3,8.8,3.6c2.3,2.3,3.7,5.4,3.7,8.7c0,1.6-0.6,3.3-1.7,5.1
	c-1,1.8-2.4,3.6-3.8,5.2c-2.9,3.3-5.9,5.8-6.5,6.3c0,0,0,0,0,0L13,29.9l-0.5-0.4c0,0,0,0,0,0C11.9,29,8.9,26.4,6,23.2
	c-1.4-1.6-2.8-3.4-3.8-5.2c-1-1.8-1.7-3.6-1.7-5.1C0.5,9.5,1.8,6.4,4.2,4.1z M13,19.7L13,19.7c1.9,0,3.6-0.7,4.9-2
	c1.3-1.3,2.1-3,2.1-4.9v0c0-1.4-0.4-2.7-1.2-3.8c-0.8-1.1-1.9-2-3.1-2.5c-1.3-0.5-2.7-0.7-4-0.4C10.3,6.3,9,7,8.1,7.9
	c-1,1-1.6,2.2-1.9,3.5c-0.3,1.3-0.1,2.7,0.4,4c0.5,1.3,1.4,2.3,2.6,3.1C10.3,19.3,11.6,19.7,13,19.7z"/>
<path class="st0" d="M16.4,12.8c0,1.8-1.5,3.3-3.4,3.3s-3.4-1.5-3.4-3.3c0-1.8,1.5-3.3,3.4-3.3S16.4,11,16.4,12.8z"/>
</svg>
