<svg width="420" height="114" viewBox="0 0 420 114" fill="none" xmlns="http://www.w3.org/2000/svg">
<path d="M131.433 4.604L131.886 36.3368L121.251 30.454L128.718 10.4867L113.672 28.7571L106.036 28.5308L131.433 4.604ZM106.262 52.1183C106.658 54.0981 106.827 56.0213 106.827 57.9445C106.771 89.3378 40.8166 118.016 18.1341 103.026C-4.54829 88.0368 -7.54621 19.4239 23.4512 3.64241C50.6022 -10.1594 94.1004 17.727 104.565 45.9528C97.6075 56.0213 85.5026 72.4816 68.307 78.8168C63.7252 80.5137 59.7657 80.344 57.1637 78.3643C54.8446 76.6108 53.7699 73.5563 54.0527 69.5402C68.4201 60.3202 79.2805 48.4982 80.5249 40.6922C80.9774 37.8074 80.2421 35.0923 78.3189 33.056C76.3957 30.9631 73.5109 29.8884 70.6827 30.1712C55.8062 31.5853 42.8529 52.2314 42.5135 68.2958C36.4045 71.4068 31.54 73.0472 27.9198 73.2169C26.5057 73.2735 25.4875 72.8775 24.8088 71.9725C23.3381 70.0493 23.5078 65.6938 25.3178 60.0939C27.4673 53.4758 30.9743 47.7628 33.8591 43.1811C36.5742 38.8256 38.3843 35.9408 37.6489 34.1873C37.0267 32.7732 34.9904 31.5853 32.7278 31.4156C31.0874 31.2459 26.8451 31.4156 23.6209 36.2236C13.6655 51.1001 10.1585 65.2413 14.2877 74.1785C15.9847 77.7986 18.8695 80.1178 22.2634 80.5137C27.9198 81.136 35.1601 79.439 43.362 75.6492C43.9842 77.9118 45.0023 79.8915 46.3033 81.5885C48.17 83.9076 51.8467 85.8308 56.5981 86.5662C62.9899 87.5277 71.2483 86.453 79.6199 81.4753C90.3106 75.1401 98.5125 64.6756 103.49 56.9829C104.452 55.1728 105.413 53.6455 106.262 52.1183ZM36.1217 24.1188C36.9136 24.8541 37.9318 25.3632 39.063 25.5329C39.5721 25.5895 40.0812 25.646 40.6469 25.5895C42.4004 25.4198 44.0407 24.6279 45.2852 23.3835C46.9821 21.5734 47.8871 19.5936 47.8306 17.7836C47.774 16.3695 47.1518 15.0685 45.9639 13.9937C43.7013 11.9574 39.2893 12.5796 36.6873 15.2947C35.4429 16.5957 34.7076 18.1795 34.5944 19.8764C34.4247 21.5168 34.9904 23.0441 36.1217 24.1188ZM72.2099 37.9771C72.0968 37.9206 71.9837 37.864 71.814 37.864C71.5311 37.8074 71.1352 37.864 70.7392 38.0337C68.7029 38.8256 65.8181 41.767 63.0464 45.9528C60.2748 50.1385 57.8991 55.0597 56.2021 60.0373C66.8929 52.6839 73.2281 44.0861 73.115 39.9569C73.1715 38.9953 72.8321 38.3165 72.2099 37.9771Z" fill="white"/>
<path d="M114.407 113.604L108.072 94.1458H111.975L114.634 103.026C115.369 105.515 116.048 107.778 116.557 110.154H116.613C117.122 107.834 117.801 105.459 118.593 103.083L121.421 94.1458H125.211L118.48 113.661H114.407V113.604Z" fill="white"/>
<path d="M130.981 94.1458V101.952H139.183V94.1458H142.746V113.661H139.183V105.063H130.924V113.661H127.361V94.1458H130.981Z" fill="white"/>
<path d="M150.835 108.117L149.138 113.661H145.461L151.683 94.1458H156.208L162.544 113.661H158.697L156.944 108.117H150.835ZM156.435 105.402L154.907 100.594C154.512 99.4063 154.229 98.0487 153.946 96.974H153.889C153.606 98.1053 153.324 99.4628 152.984 100.594L151.457 105.402H156.435Z" fill="white"/>
<path d="M175.045 94.1458V113.661H171.481V94.1458H175.045Z" fill="white"/>
<path d="M179.23 103.705C179.23 102.065 179.174 100.707 179.117 99.5193H182.228L182.398 101.612H182.511C183.133 100.537 184.661 99.1799 186.98 99.1799C189.412 99.1799 192.014 100.764 192.014 105.232V113.604H188.45V105.628C188.45 103.592 187.715 102.065 185.735 102.065C184.321 102.065 183.36 103.083 182.964 104.158C182.85 104.497 182.794 104.893 182.794 105.289V113.547H179.23V103.705Z" fill="white"/>
<path d="M195.86 103.705C195.86 102.065 195.804 100.707 195.747 99.5193H198.858L199.028 101.612H199.141C199.763 100.537 201.291 99.1799 203.61 99.1799C206.042 99.1799 208.644 100.764 208.644 105.232V113.604H205.08V105.628C205.08 103.592 204.345 102.065 202.365 102.065C200.951 102.065 199.99 103.083 199.594 104.158C199.481 104.497 199.424 104.893 199.424 105.289V113.547H195.86V103.705Z" fill="white"/>
<path d="M225.896 106.477C225.896 111.681 222.276 114 218.656 114C214.64 114 211.585 111.228 211.585 106.76C211.585 102.122 214.64 99.2933 218.882 99.2933C223.068 99.2367 225.896 102.178 225.896 106.477ZM215.262 106.59C215.262 109.305 216.62 111.342 218.769 111.342C220.805 111.342 222.22 109.362 222.22 106.534C222.22 104.328 221.258 101.839 218.826 101.839C216.28 101.839 215.262 104.271 215.262 106.59Z" fill="white"/>
<path d="M230.93 99.5193L233.193 106.646C233.589 107.891 233.872 109.022 234.155 110.153H234.268C234.551 109.022 234.833 107.891 235.229 106.646L237.435 99.5193H241.225L235.852 113.604H232.345L227.084 99.5193H230.93Z" fill="white"/>
<path d="M254.179 110.267C254.179 111.568 254.235 112.812 254.405 113.66H251.181L250.954 112.077H250.841C249.993 113.151 248.522 113.943 246.655 113.943C243.827 113.943 242.243 111.907 242.243 109.758C242.243 106.194 245.411 104.384 250.615 104.44V104.214C250.615 103.309 250.219 101.725 247.73 101.725C246.316 101.725 244.902 102.178 243.94 102.743L243.262 100.424C244.28 99.8021 246.146 99.1799 248.352 99.1799C252.878 99.1799 254.179 102.065 254.179 105.119V110.267ZM250.728 106.76C248.183 106.703 245.807 107.269 245.807 109.418C245.807 110.832 246.712 111.454 247.843 111.454C249.257 111.454 250.332 110.549 250.615 109.531C250.728 109.248 250.728 108.966 250.728 108.739V106.76Z" fill="white"/>
<path d="M261.928 95.8994V99.5196H265.322V102.178H261.928V108.4C261.928 110.097 262.38 111.002 263.738 111.002C264.417 111.002 264.7 110.946 265.152 110.832L265.209 113.548C264.7 113.774 263.738 113.944 262.607 113.944C261.306 113.944 260.231 113.491 259.552 112.756C258.817 111.964 258.477 110.663 258.477 108.796V102.178H256.441V99.5196H258.477V96.9176L261.928 95.8994Z" fill="white"/>
<path d="M281.33 106.477C281.33 111.681 277.71 114 274.089 114C270.073 114 267.019 111.228 267.019 106.76C267.019 102.122 270.073 99.2933 274.316 99.2933C278.501 99.2367 281.33 102.178 281.33 106.477ZM270.696 106.59C270.696 109.305 272.053 111.342 274.203 111.342C276.239 111.342 277.653 109.362 277.653 106.534C277.653 104.328 276.691 101.839 274.259 101.839C271.714 101.839 270.696 104.271 270.696 106.59Z" fill="white"/>
<path d="M284.327 104.101C284.327 102.178 284.271 100.82 284.214 99.576H287.325L287.439 102.291H287.552C288.23 100.311 289.871 99.2932 291.398 99.2932C291.737 99.2932 291.964 99.3498 292.247 99.4063V102.744C291.964 102.687 291.624 102.631 291.228 102.631C289.531 102.631 288.344 103.705 288.061 105.346C288.004 105.685 287.948 106.024 287.948 106.42V113.717H284.384V104.101H284.327Z" fill="white"/>
<path d="M294.566 110.38C295.358 110.889 296.885 111.398 298.186 111.398C299.77 111.398 300.448 110.776 300.448 109.814C300.448 108.853 299.883 108.344 298.129 107.778C295.358 106.816 294.226 105.289 294.226 103.649C294.226 101.16 296.263 99.2368 299.543 99.2368C301.127 99.2368 302.485 99.6328 303.277 100.085L302.598 102.631C301.976 102.291 300.844 101.839 299.6 101.839C298.355 101.839 297.62 102.461 297.62 103.309C297.62 104.214 298.299 104.667 300.052 105.289C302.598 106.194 303.786 107.495 303.842 109.588C303.842 112.134 301.862 114 298.129 114C296.432 114 294.905 113.548 293.83 112.982L294.566 110.38Z" fill="white"/>
<path d="M313.062 113.604V94.0894H317.135L322.169 102.461C323.47 104.61 324.601 106.873 325.506 109.022H325.563C325.337 106.42 325.224 103.875 325.224 100.934V94.1459H328.504V113.661H324.828L319.737 105.063C318.492 102.97 317.191 100.538 316.23 98.3317L316.117 98.3883C316.286 100.934 316.286 103.479 316.286 106.703V113.661H313.062V113.604Z" fill="white"/>
<path d="M335.123 107.608C335.236 110.154 337.216 111.228 339.478 111.228C341.118 111.228 342.306 111.002 343.381 110.606L343.89 113.095C342.702 113.604 341.005 114 338.969 114C334.387 114 331.729 111.172 331.729 106.873C331.729 102.97 334.104 99.2932 338.63 99.2932C343.211 99.2932 344.682 103.026 344.682 106.138C344.682 106.816 344.625 107.325 344.569 107.665H335.123V107.608ZM341.288 105.063C341.345 103.762 340.723 101.612 338.347 101.612C336.141 101.612 335.236 103.592 335.066 105.063H341.288Z" fill="white"/>
<path d="M351.696 95.8994V99.5196H355.09V102.178H351.696V108.4C351.696 110.097 352.149 111.002 353.506 111.002C354.185 111.002 354.468 110.946 354.92 110.832L354.977 113.548C354.468 113.774 353.506 113.944 352.375 113.944C351.074 113.944 349.999 113.491 349.32 112.756C348.585 111.964 348.246 110.663 348.246 108.796V102.178H346.209V99.5196H348.246V96.9176L351.696 95.8994Z" fill="white"/>
<path d="M360.181 99.5193L361.651 105.911C361.991 107.438 362.273 108.966 362.556 110.493H362.613C362.896 108.966 363.348 107.382 363.744 105.968L365.554 99.5193H368.439L370.193 105.798C370.645 107.438 370.984 108.966 371.324 110.493H371.38C371.607 108.966 371.946 107.438 372.285 105.798L373.869 99.5193H377.376L372.964 113.604H369.683L367.986 107.891C367.534 106.42 367.251 105.063 366.912 103.366H366.855C366.572 105.119 366.176 106.477 365.78 107.891L363.97 113.604H360.633L356.447 99.5193H360.181Z" fill="white"/>
<path d="M392.818 106.477C392.818 111.681 389.198 114 385.578 114C381.562 114 378.508 111.228 378.508 106.76C378.508 102.122 381.562 99.2933 385.804 99.2933C389.99 99.2367 392.818 102.178 392.818 106.477ZM382.184 106.59C382.184 109.305 383.542 111.342 385.691 111.342C387.728 111.342 389.142 109.362 389.142 106.534C389.142 104.328 388.18 101.839 385.748 101.839C383.202 101.839 382.184 104.271 382.184 106.59Z" fill="white"/>
<path d="M395.816 104.101C395.816 102.178 395.76 100.82 395.703 99.576H398.814L398.927 102.291H399.04C399.719 100.311 401.36 99.2932 402.887 99.2932C403.226 99.2932 403.452 99.3498 403.735 99.4063V102.744C403.452 102.687 403.113 102.631 402.717 102.631C401.02 102.631 399.832 103.705 399.55 105.346C399.493 105.685 399.436 106.024 399.436 106.42V113.717H395.873V104.101H395.816Z" fill="white"/>
<path d="M409.731 105.742H409.788C410.127 105.176 410.523 104.61 410.919 104.101L414.313 99.5761H418.612L413.408 105.346L419.347 113.661H414.992L410.919 107.439L409.731 108.853V113.661H406.168V93.1277H409.731V105.742Z" fill="white"/>
</svg>
