<svg width="121" height="120" viewBox="0 0 121 120" fill="none" xmlns="http://www.w3.org/2000/svg">
<circle cx="60.3333" cy="60" r="58.5" stroke="url(#paint0_linear_253_399)" stroke-width="3"/>
<g clip-path="url(#clip0_253_399)">
<path d="M85.9178 44.1892L60.4744 33.0482C60.1559 32.9087 59.7935 32.9087 59.4747 33.0482L34.0323 44.1892C33.5577 44.3971 33.2611 44.877 33.2878 45.3946C33.2919 45.4759 33.3049 45.5552 33.324 45.6323V56.0238C31.97 56.5236 31.0007 57.8385 31.0007 59.378C31.0007 61.3462 32.5849 62.9474 34.532 62.9474C36.4791 62.9474 38.0633 61.3462 38.0633 59.378C38.0633 57.8677 37.13 56.5744 35.8161 56.054V47.0504L45.1826 50.0507C45.1826 50.0507 45.1826 60.1621 45.1826 60.172C45.1826 60.561 45.3771 60.945 45.69 61.1754C45.9014 61.331 50.9701 64.9861 59.9756 64.9861C68.9811 64.9861 74.049 61.3309 74.2604 61.1753C74.573 60.945 74.7676 60.5605 74.7676 60.1718V50.0504L85.7981 46.5172C86.2916 46.3592 86.6358 45.9121 86.6624 45.3945C86.689 44.8771 86.3926 44.3971 85.9178 44.1892ZM34.5321 60.4553C33.959 60.4553 33.4929 59.972 33.4929 59.378C33.4929 58.784 33.9592 58.3007 34.5321 58.3007C35.1051 58.3007 35.5713 58.784 35.5713 59.378C35.5713 59.972 35.1052 60.4553 34.5321 60.4553ZM72.2755 58.0173C69.9975 56.8944 65.8135 55.3579 59.9746 55.3579C54.1363 55.3579 49.9527 56.8941 47.6748 58.0172V48.7813C49.0864 47.944 53.3783 45.7769 59.9746 45.7769C66.5709 45.7769 70.8636 47.944 72.2755 48.7814V58.0173ZM48.9622 60.172C51.0179 59.1923 54.7821 57.8499 59.9746 57.8499C65.1681 57.8499 68.9332 59.1928 70.9882 60.1718C68.9324 61.1515 65.1682 62.4939 59.9758 62.4939C54.7823 62.4941 51.0171 61.1511 48.9622 60.172ZM74.6037 47.4863C74.5184 47.3358 74.4034 47.202 74.2605 47.0966C74.0491 46.941 68.9801 43.2848 59.9746 43.2848C50.969 43.2848 45.9012 46.9411 45.6898 47.0967C45.5468 47.2021 45.4319 47.336 45.3466 47.4863L38.0519 45.1497L59.9745 35.5499L81.8981 45.1497L74.6037 47.4863Z" fill="#1B1B1B"/>
<path d="M88.1672 73.9968C88.1204 73.4732 87.7347 73.0427 87.2262 72.9096L68.3256 67.9651C66.8678 67.5805 65.343 67.6357 63.9163 68.1239C62.2683 68.6869 60.9092 69.7758 59.9997 71.1647C59.0905 69.7758 57.7318 68.687 56.0847 68.1242C54.6577 67.6356 53.1327 67.5805 51.6764 67.9645L32.7562 72.9191C32.2477 73.0522 31.8622 73.4829 31.8154 74.0064C31.7688 74.5275 32.0376 75.0146 32.5105 75.2372C32.6828 75.332 34.7834 76.5647 34.7834 80.2125C34.7834 80.9007 35.3413 81.4585 36.0294 81.4585C36.7176 81.4585 37.2755 80.9007 37.2755 80.2125C37.2755 77.6348 36.4566 75.8828 35.594 74.7521L52.3098 70.3748C53.2911 70.1161 54.3172 70.1533 55.278 70.4822C57.3567 71.1924 58.7533 73.1455 58.7533 75.3424V81.2023C58.7533 81.8905 59.3112 82.4484 59.9993 82.4484C60.6875 82.4484 61.2454 81.8905 61.2454 81.2023V75.3424C61.2454 73.1457 62.6424 71.1926 64.7225 70.482C65.6832 70.1533 66.7095 70.1161 67.6925 70.3754L84.3882 74.7432C83.526 75.8738 82.7071 77.626 82.7071 80.2031C82.7071 80.8912 83.265 81.4491 83.9531 81.4491C84.6413 81.4491 85.1992 80.8912 85.1992 80.2031C85.1992 76.5553 87.2998 75.3227 87.4721 75.2279C87.945 75.0051 88.2139 74.518 88.1672 73.9968Z" fill="#B0CD56"/>
<path d="M62.0524 87.0563H57.9478C56.1401 87.0563 54.4204 86.4832 52.9745 85.3991C51.9026 84.5953 51.0337 83.5305 50.4558 82.3291L35.096 86.4893C35.0895 86.491 35.083 86.4927 35.0764 86.4944C33.4247 86.9132 31.7407 85.91 31.3221 84.2585L31.096 83.3666C30.8931 82.5666 31.0141 81.7354 31.4364 81.0262C31.857 80.3201 32.5263 79.8192 33.322 79.6147L51.5301 74.7137C51.536 74.7121 51.542 74.7105 51.548 74.7091C52.7827 74.3964 54.0736 74.666 55.0898 75.449C56.1284 76.2495 56.7313 77.4583 56.7437 78.7656C56.7497 79.3999 57.3385 79.9563 58.0038 79.9563H61.9962C62.3212 79.9563 62.6463 79.8221 62.8879 79.5881C63.1257 79.3579 63.2565 79.0619 63.2564 78.7546C63.2557 77.4721 63.8458 76.2768 64.8754 75.475C65.9049 74.6734 67.2087 74.3943 68.452 74.7091C68.458 74.7106 68.4641 74.7121 68.4701 74.7138L86.6782 79.6147C87.4738 79.8192 88.1432 80.3201 88.5638 81.0262C88.9861 81.7354 89.107 82.5665 88.9042 83.3666L88.6781 84.2585C88.2594 85.9101 86.5751 86.9127 84.9237 86.4944C84.9171 86.4927 84.9107 86.491 84.9041 86.4893L69.5444 82.3289C68.9663 83.5305 68.0976 84.5953 67.0256 85.399C65.5797 86.4832 63.86 87.0563 62.0524 87.0563ZM51.2042 79.5891C51.7375 79.5891 52.2289 79.9339 52.394 80.467C53.1405 82.8793 55.4243 84.564 57.9478 84.564H62.0524C64.5759 84.564 66.8597 82.8793 67.6062 80.467C67.8045 79.826 68.4748 79.4575 69.1223 79.6326L85.543 84.0803C85.86 84.1567 86.1819 83.9632 86.2623 83.646L86.4884 82.7542C86.5413 82.5453 86.4698 82.3809 86.4225 82.3014C86.3753 82.222 86.2647 82.0808 86.0558 82.028C86.0499 82.0264 86.0439 82.0249 86.0381 82.0233L67.8322 77.123C67.3419 77.0017 66.8228 77.1174 66.4066 77.4413C65.9881 77.7672 65.7482 78.2455 65.7485 78.7533C65.7491 79.742 65.3489 80.6743 64.6215 81.3785C63.9089 82.0685 62.9766 82.4486 61.9962 82.4486H58.0038C55.9541 82.4486 54.2709 80.8069 54.2517 78.7892C54.2466 78.2516 53.9976 77.7536 53.5685 77.423C53.3307 77.2397 52.8329 76.9576 52.1676 77.1231L33.962 82.0233C33.9561 82.0249 33.9502 82.0264 33.9443 82.028C33.7355 82.0809 33.6249 82.222 33.5777 82.3014C33.5304 82.3809 33.4588 82.5453 33.5117 82.7542L33.7378 83.6461C33.8183 83.9633 34.14 84.1571 34.4572 84.0803L50.8778 79.6326C50.9867 79.6031 51.0964 79.5891 51.2042 79.5891Z" fill="#1B1B1B"/>
</g>
<defs>
<linearGradient id="paint0_linear_253_399" x1="60.3333" y1="0" x2="60.3333" y2="120" gradientUnits="userSpaceOnUse">
<stop stop-color="#018A86"/>
<stop offset="1" stop-color="#B0CD56"/>
</linearGradient>
<clipPath id="clip0_253_399">
<rect width="58" height="58" fill="white" transform="translate(31 31)"/>
</clipPath>
</defs>
</svg>
