<svg width="120" height="120" viewBox="0 0 120 120" fill="none" xmlns="http://www.w3.org/2000/svg">
<circle cx="60" cy="60" r="58.5" stroke="url(#paint0_linear_253_386)" stroke-width="3"/>
<g clip-path="url(#clip0_253_386)">
<path d="M75.4838 64.8891H69.744C69.9195 64.356 70.0107 63.7922 70.0107 63.2137C70.0107 60.2713 67.6168 57.8775 64.6746 57.8775C61.7323 57.8775 59.3384 60.2713 59.3384 63.2137C59.3384 63.7922 59.4295 64.356 59.6051 64.8891H55.1113V58.1878C55.1113 57.6816 54.805 57.2255 54.3363 57.0342C53.8673 56.8429 53.3297 56.9541 52.9751 57.3157C52.4355 57.8663 51.714 58.1697 50.9436 58.1697C49.3755 58.1697 48.0998 56.8939 48.0998 55.3258C48.0998 53.7576 49.3756 52.4818 50.9436 52.4818C51.714 52.4818 52.4355 52.7851 52.9751 53.3359C53.3294 53.6973 53.867 53.8088 54.3363 53.6174C54.805 53.426 55.1113 52.97 55.1113 52.4637V44.5164C55.1113 43.8282 54.5534 43.2703 53.8653 43.2703H42.7636C36.277 43.2703 31 48.5472 31 55.0336V77.2367C31 83.7231 36.277 89.0001 42.7634 89.0001H64.9666C71.453 89.0001 76.7299 83.7231 76.7299 77.2367V66.1352C76.7299 65.447 76.172 64.8891 75.4838 64.8891ZM42.7634 45.7625H52.6189V50.2562C52.0858 50.0807 51.522 49.9895 50.9435 49.9895C48.0011 49.9895 45.6075 52.3833 45.6075 55.3257C45.6075 58.268 48.0012 60.6618 50.9435 60.6618C51.522 60.6618 52.0858 60.5707 52.6189 60.3951V64.889H45.9177C45.4113 64.889 44.9553 65.1954 44.7639 65.6642C44.5727 66.1329 44.6839 66.6709 45.0455 67.0252C45.5962 67.5647 45.8994 68.2862 45.8994 69.0566C45.8994 70.6247 44.6237 71.9004 43.0556 71.9004C41.4876 71.9004 40.2117 70.6246 40.2117 69.0566C40.2117 68.2862 40.5149 67.5647 41.0656 67.0252C41.4272 66.6709 41.5386 66.133 41.3472 65.6642C41.1559 65.1954 40.6998 64.889 40.1935 64.889H33.4922V55.0335C33.4922 49.9215 37.6512 45.7625 42.7634 45.7625ZM33.4922 77.2367V67.3813H37.9861C37.8105 67.9144 37.7194 68.4782 37.7194 69.0567C37.7194 71.9991 40.1132 74.3927 43.0555 74.3927C45.9978 74.3927 48.3915 71.999 48.3915 69.0567C48.3915 68.4782 48.3004 67.9144 48.1248 67.3813H52.6187V74.0825C52.6187 74.5889 52.925 75.0449 53.3939 75.2362C53.8623 75.4275 54.4005 75.3163 54.755 74.9546C55.2945 74.4039 56.0159 74.1005 56.7863 74.1005C58.3545 74.1005 59.6301 75.3763 59.6301 76.9445C59.6301 78.5126 58.3544 79.7884 56.7863 79.7884C56.0159 79.7884 55.2945 79.4851 54.755 78.9345C54.4006 78.5727 53.8625 78.4615 53.3939 78.6529C52.925 78.8442 52.6187 79.3002 52.6187 79.8065V86.5079H42.7631C37.6512 86.5079 33.4922 82.3489 33.4922 77.2367ZM74.2378 77.2367C74.2378 82.3489 70.0787 86.5079 64.9666 86.5079H55.1111V82.0141C55.6441 82.1896 56.2079 82.2807 56.7864 82.2807C59.7288 82.2807 62.1224 79.887 62.1224 76.9446C62.1224 74.0022 59.7287 71.6085 56.7864 71.6085C56.208 71.6085 55.6441 71.6996 55.1111 71.8751V67.3814H61.8123C62.3186 67.3814 62.7745 67.075 62.9659 66.6063C63.1574 66.1377 63.046 65.5996 62.6844 65.2452C62.1338 64.7057 61.8305 63.9842 61.8305 63.2138C61.8305 61.6456 63.1064 60.3698 64.6744 60.3698C66.2425 60.3698 67.5184 61.6456 67.5184 63.2138C67.5184 63.9841 67.215 64.7056 66.6643 65.2452C66.3027 65.5996 66.1914 66.1376 66.3828 66.6063C66.5743 67.0751 67.0301 67.3814 67.5365 67.3814H74.2378V77.2367Z" fill="#1B1B1B"/>
<path d="M87.7539 55.111H79.8067C79.3003 55.111 78.8443 54.8046 78.653 54.3359C78.4617 53.8672 78.5729 53.3292 78.9345 52.9749C79.4852 52.4353 79.7884 51.7139 79.7884 50.9435C79.7884 49.3754 78.5125 48.0996 76.9445 48.0996C75.3765 48.0996 74.1007 49.3754 74.1007 50.9435C74.1007 51.7139 74.4039 52.4353 74.9546 52.9749C75.3162 53.3292 75.4275 53.8672 75.2361 54.3359C75.0449 54.8047 74.5888 55.111 74.0824 55.111H66.1351C65.4469 55.111 64.889 54.5531 64.889 53.8649V48.1251C64.356 48.3005 63.7921 48.3917 63.2137 48.3917C60.2713 48.3917 57.8776 45.998 57.8776 43.0557C57.8776 40.1134 60.2714 37.7196 63.2137 37.7196C63.7921 37.7196 64.356 37.8108 64.889 37.9863V32.2461C64.889 31.5579 65.4469 31 66.1351 31H77.2366C83.723 31 89 36.277 89 42.7634V53.8649C89 54.5531 88.4421 55.111 87.7539 55.111ZM82.0141 52.6188H86.5078V42.7634C86.5078 37.6512 82.3488 33.4922 77.2366 33.4922H67.3812V40.1935C67.3812 40.6998 67.0749 41.1558 66.6061 41.3471C66.1369 41.5383 65.5994 41.4272 65.2449 41.0656C64.7054 40.5149 63.984 40.2116 63.2136 40.2116C61.6454 40.2116 60.3696 41.4874 60.3696 43.0555C60.3696 44.6237 61.6455 45.8993 63.2136 45.8993C63.984 45.8993 64.7054 45.5961 65.2449 45.0453C65.5995 44.6837 66.1372 44.5726 66.6061 44.7638C67.0749 44.9551 67.3812 45.4111 67.3812 45.9174V52.6187H71.875C71.6996 52.0856 71.6084 51.5218 71.6084 50.9433C71.6084 48.0009 74.0021 45.6072 76.9444 45.6072C79.8866 45.6072 82.2805 48.0009 82.2805 50.9433C82.2807 51.5219 82.1895 52.0857 82.0141 52.6188Z" fill="#B0CD56"/>
</g>
<defs>
<linearGradient id="paint0_linear_253_386" x1="60" y1="0" x2="60" y2="120" gradientUnits="userSpaceOnUse">
<stop stop-color="#018A86"/>
<stop offset="1" stop-color="#B0CD56"/>
</linearGradient>
<clipPath id="clip0_253_386">
<rect width="58" height="58" fill="white" transform="translate(31 31)"/>
</clipPath>
</defs>
</svg>
