<svg width="121" height="120" viewBox="0 0 121 120" fill="none" xmlns="http://www.w3.org/2000/svg">
<circle cx="60.6666" cy="60" r="58.5" stroke="url(#paint0_linear_253_365)" stroke-width="3"/>
<g clip-path="url(#clip0_253_365)">
<path d="M67.1172 39.4902H74.1406C74.8288 39.4902 75.3867 38.9323 75.3867 38.2441C75.3867 37.556 74.8288 36.998 74.1406 36.998H67.1172C66.429 36.998 65.8711 37.556 65.8711 38.2441C65.8711 38.9323 66.429 39.4902 67.1172 39.4902Z" fill="#1B1B1B"/>
<path d="M64.8516 44.4746H76.4062C77.0944 44.4746 77.6523 43.9167 77.6523 43.2285C77.6523 42.5403 77.0944 41.9824 76.4062 41.9824H64.8516C64.1634 41.9824 63.6055 42.5403 63.6055 43.2285C63.6055 43.9167 64.1634 44.4746 64.8516 44.4746Z" fill="#1B1B1B"/>
<path d="M48.1992 59.4277H55.2227C55.9108 59.4277 56.4688 58.8698 56.4688 58.1816C56.4688 57.4935 55.9108 56.9355 55.2227 56.9355H48.1992C47.511 56.9355 46.9531 57.4935 46.9531 58.1816C46.9531 58.8698 47.511 59.4277 48.1992 59.4277Z" fill="#1B1B1B"/>
<path d="M45.9336 64.4121H57.4883C58.1765 64.4121 58.7344 63.8542 58.7344 63.166C58.7344 62.4778 58.1765 61.9199 57.4883 61.9199H45.9336C45.2454 61.9199 44.6875 62.4778 44.6875 63.166C44.6875 63.8542 45.2454 64.4121 45.9336 64.4121Z" fill="#1B1B1B"/>
<path d="M53.4102 80.0178H60.4336C61.1218 80.0178 61.6797 79.4599 61.6797 78.7717C61.6797 78.0835 61.1218 77.5256 60.4336 77.5256H53.4102C52.722 77.5256 52.1641 78.0835 52.1641 78.7717C52.1641 79.4599 52.722 80.0178 53.4102 80.0178Z" fill="#1B1B1B"/>
<path d="M62.6992 82.51H51.1445C50.4563 82.51 49.8984 83.0679 49.8984 83.7561C49.8984 84.4443 50.4563 85.0022 51.1445 85.0022H62.6992C63.3874 85.0022 63.9453 84.4443 63.9453 83.7561C63.9453 83.0679 63.3874 82.51 62.6992 82.51Z" fill="#1B1B1B"/>
<path d="M88.7539 39.4902H82.6367V33.2598C82.6367 32.5716 82.0788 32.0137 81.3906 32.0137H59.8672C59.179 32.0137 58.6211 32.5716 58.6211 33.2598V39.4902H44.4609V35.752C44.4609 35.0638 43.903 34.5059 43.2148 34.5059H33.2461C32.5579 34.5059 32 35.0638 32 35.752V45.7207C32 46.4089 32.5579 46.9668 33.2461 46.9668H43.2148C43.903 46.9668 44.4609 46.4089 44.4609 45.7207V41.9824H58.6211V48.2129C58.6211 48.9011 59.179 49.459 59.8672 49.459H81.3906C82.0788 49.459 82.6367 48.9011 82.6367 48.2129V41.9824H87.5078V59.4277H63.7188V53.1973C63.7188 52.5091 63.1608 51.9512 62.4727 51.9512H40.9492C40.261 51.9512 39.7031 52.5091 39.7031 53.1973V59.4277H33.2461C32.5579 59.4277 32 59.9856 32 60.6738V81.2638C32 81.952 32.5579 82.5099 33.2461 82.5099H44.9141V88.7404C44.9141 89.4286 45.472 89.9865 46.1602 89.9865H67.6836C68.3718 89.9865 68.9297 89.4286 68.9297 88.7404V82.5099H73.8008V80.0177H68.9297V73.7873C68.9297 73.0991 68.3718 72.5412 67.6836 72.5412H46.1602C45.472 72.5412 44.9141 73.0991 44.9141 73.7873V80.0177H34.4922V61.9199H39.7031V68.1504C39.7031 68.8386 40.261 69.3965 40.9492 69.3965H62.4727C63.1608 69.3965 63.7188 68.8386 63.7188 68.1504V61.9199H88.7539C89.4421 61.9199 90 61.362 90 60.6738V40.7363C90 40.048 89.4421 39.4902 88.7539 39.4902ZM41.9688 44.4746H34.4922V36.998H41.9688V44.4746ZM80.1445 46.9668H61.1133V34.5059H80.1445V46.9668ZM47.4062 75.0334H66.4375V87.4943H47.4062V75.0334ZM61.2266 66.9043H42.1953V54.4434H61.2266V66.9043Z" fill="#1B1B1B"/>
<path d="M83.005 78.7648L80.6501 81.1197L79.5497 80.0193C79.0631 79.5327 78.274 79.5327 77.7874 80.0193C77.3008 80.506 77.3008 81.295 77.7874 81.7816L79.769 83.7633C80.0027 83.997 80.3197 84.1283 80.6501 84.1283C80.9806 84.1283 81.2975 83.997 81.5312 83.7633L84.7672 80.5273C85.2538 80.0406 85.2538 79.2516 84.7672 78.765C84.2807 78.2782 83.4917 78.2783 83.005 78.7648Z" fill="#B0CD56"/>
<path d="M81.2773 72.5413C76.4676 72.5413 72.5547 76.4542 72.5547 81.2639C72.5547 86.0736 76.4676 89.9866 81.2773 89.9866C86.087 89.9866 90 86.0736 90 81.2639C90 76.4542 86.087 72.5413 81.2773 72.5413ZM81.2773 87.4944C77.8419 87.4944 75.0469 84.6994 75.0469 81.2639C75.0469 77.8284 77.8419 75.0334 81.2773 75.0334C84.7128 75.0334 87.5078 77.8284 87.5078 81.2639C87.5078 84.6994 84.7128 87.4944 81.2773 87.4944Z" fill="#B0CD56"/>
</g>
<defs>
<linearGradient id="paint0_linear_253_365" x1="60.6666" y1="0" x2="60.6666" y2="120" gradientUnits="userSpaceOnUse">
<stop stop-color="#018A86"/>
<stop offset="1" stop-color="#B0CD56"/>
</linearGradient>
<clipPath id="clip0_253_365">
<rect width="58" height="58" fill="white" transform="translate(32 32)"/>
</clipPath>
</defs>
</svg>
