<svg width="151" height="143" viewBox="0 0 151 143" fill="none" xmlns="http://www.w3.org/2000/svg">
<circle cx="74.0001" cy="60.2295" r="58.5" stroke="url(#paint0_linear_253_219)" stroke-width="3"/>
<g clip-path="url(#clip0_253_219)">
<path d="M94.1255 41.3071H74.1113C73.4469 41.3071 72.9082 40.7685 72.9082 40.104C72.9082 39.4396 73.4469 38.9009 74.1113 38.9009H94.1255C94.79 38.9009 95.3287 39.4396 95.3287 40.104C95.3287 40.7685 94.79 41.3071 94.1255 41.3071Z" fill="white"/>
<path d="M97.4613 32.2295H50.539C48.0362 32.2295 46.0001 34.2656 46.0001 36.7683V83.6907C46.0001 86.1934 48.0362 88.2295 50.539 88.2295H97.4613C99.964 88.2295 102 86.1934 102 83.6907V36.7683C102 34.2656 99.964 32.2295 97.4613 32.2295ZM50.539 34.6357H97.4613C98.6372 34.6357 99.5939 35.5924 99.5939 36.7683V45.5724H48.4064V36.7683C48.4064 35.5924 49.3631 34.6357 50.539 34.6357ZM48.4064 83.6907V47.9786H72.7948V85.8232H50.539C49.3631 85.8232 48.4064 84.8665 48.4064 83.6907ZM97.4613 85.8232H75.201V47.9786H99.5939V83.6907C99.5939 84.8665 98.6372 85.8232 97.4613 85.8232Z" fill="white"/>
<path d="M65.9219 70.8679H55.0978C54.4333 70.8679 53.8947 70.3292 53.8947 69.6648C53.8947 69.0003 54.4333 68.4617 55.0978 68.4617H65.9219C66.5863 68.4617 67.125 69.0003 67.125 69.6648C67.125 70.3292 66.5863 70.8679 65.9219 70.8679Z" fill="white"/>
<path d="M65.9219 76.2844H55.0978C54.4333 76.2844 53.8947 75.7458 53.8947 75.0813C53.8947 74.4168 54.4333 73.8782 55.0978 73.8782H65.9219C66.5863 73.8782 67.125 74.4168 67.125 75.0813C67.125 75.7458 66.5863 76.2844 65.9219 76.2844Z" fill="#B0CD56"/>
<path d="M65.9219 81.7009H55.0978C54.4333 81.7009 53.8947 81.1623 53.8947 80.4978C53.8947 79.8333 54.4333 79.2947 55.0978 79.2947H65.9219C66.5863 79.2947 67.125 79.8333 67.125 80.4978C67.125 81.1623 66.5863 81.7009 65.9219 81.7009Z" fill="white"/>
<path d="M92.9024 70.8679H82.0784C81.4139 70.8679 80.8752 70.3292 80.8752 69.6648C80.8752 69.0003 81.4139 68.4617 82.0784 68.4617H92.9024C93.5669 68.4617 94.1056 69.0003 94.1056 69.6648C94.1056 70.3292 93.567 70.8679 92.9024 70.8679Z" fill="#B0CD56"/>
<path d="M92.9024 76.2844H82.0784C81.4139 76.2844 80.8752 75.7458 80.8752 75.0813C80.8752 74.4168 81.4139 73.8782 82.0784 73.8782H92.9024C93.5669 73.8782 94.1056 74.4168 94.1056 75.0813C94.1056 75.7458 93.567 76.2844 92.9024 76.2844Z" fill="white"/>
<path d="M92.9024 81.7009H82.0784C81.4139 81.7009 80.8752 81.1623 80.8752 80.4978C80.8752 79.8333 81.4139 79.2947 82.0784 79.2947H92.9024C93.5669 79.2947 94.1056 79.8333 94.1056 80.4978C94.1056 81.1623 93.567 81.7009 92.9024 81.7009Z" fill="#B0CD56"/>
<path d="M65.8925 63.814L64.9628 61.3504C64.9372 61.2243 64.8913 61.1059 64.8295 60.9974L61.88 53.1816C61.8758 53.1706 61.8714 53.1598 61.8671 53.1488C61.6428 52.6039 61.1175 52.252 60.5283 52.252C60.528 52.252 60.5275 52.252 60.5272 52.252C59.9375 52.2524 59.4121 52.6053 59.1887 53.151C59.185 53.1602 59.1814 53.1694 59.1777 53.1787L56.1754 61.0617C56.1429 61.1278 56.1163 61.1972 56.0962 61.2695L55.1285 63.8105C54.8919 64.4314 55.2036 65.1265 55.8245 65.363C55.9654 65.4167 56.1101 65.4421 56.2525 65.4421C56.7374 65.4421 57.1942 65.1469 57.377 64.6669L58.0903 62.794H62.9355L63.6411 64.6635C63.8758 65.2852 64.5699 65.5991 65.1916 65.3644C65.8132 65.1298 66.1271 64.4356 65.8925 63.814ZM59.0069 60.3877L60.5242 56.4039L62.0275 60.3877H59.0069Z" fill="#B0CD56"/>
<path d="M90.351 58.0461C90.7715 57.4471 91.0192 56.7186 91.0192 55.9329C91.0192 53.8995 89.3649 52.2454 87.3315 52.2454H84.1951C83.5306 52.2454 82.9919 52.784 82.9919 53.4485V58.4203V58.4284V64.2459C82.9919 64.5659 83.1195 64.8727 83.3462 65.0986C83.5716 65.3231 83.877 65.449 84.1951 65.449C84.1969 65.449 84.1986 65.449 84.2004 65.449C84.2293 65.4489 87.0949 65.4362 87.8793 65.4362C90.1453 65.4362 91.9887 63.5928 91.9887 61.3268C91.9888 59.9878 91.345 58.7968 90.351 58.0461ZM87.3316 54.6516C88.0382 54.6516 88.6131 55.2264 88.6131 55.9329C88.6131 56.6395 88.0382 57.2144 87.3316 57.2144C87.1029 57.2144 86.6736 57.2157 86.2045 57.2172H85.3984V54.6516H87.3316ZM87.8794 63.0298C87.427 63.0298 86.2911 63.034 85.3983 63.0376V59.6264C85.6618 59.6253 85.9417 59.6242 86.2088 59.6234H87.8793C88.8185 59.6234 89.5824 60.3873 89.5824 61.3265C89.5826 62.2659 88.8185 63.0298 87.8794 63.0298Z" fill="white"/>
<path d="M67.3283 41.3077C65.9157 41.3395 65.6998 39.1685 67.0931 38.9244C68.7973 38.6203 69.056 41.274 67.3283 41.3077Z" fill="white"/>
<path d="M60.5459 41.3076C59.1329 41.3392 58.9172 39.1684 60.3108 38.9243C62.0131 38.6177 62.2746 41.2743 60.5459 41.3076Z" fill="white"/>
<path d="M53.8751 41.3077C52.4613 41.3404 52.2457 39.1673 53.6401 38.9244C55.3431 38.6222 55.6019 41.2726 53.8751 41.3077Z" fill="white"/>
</g>
<path d="M147.345 102.737C148.169 102.652 148.907 103.251 148.992 104.075L150.383 117.503C150.468 118.327 149.869 119.064 149.045 119.15C148.221 119.235 147.484 118.636 147.399 117.812L146.162 105.876L134.226 107.112C133.402 107.198 132.665 106.599 132.58 105.775C132.494 104.951 133.093 104.213 133.917 104.128L147.345 102.737ZM2.66375 103.293C20.9662 125.805 46.4367 139.729 74.4958 139.729V142.729C45.3902 142.729 19.1111 128.278 0.336008 105.186L2.66375 103.293ZM74.4958 139.729C102.555 139.729 128.042 125.804 146.336 103.284L148.664 105.175C129.897 128.279 103.601 142.729 74.4958 142.729V139.729Z" fill="#B0CD56"/>
<defs>
<linearGradient id="paint0_linear_253_219" x1="74.0001" y1="0.229492" x2="74.0001" y2="120.229" gradientUnits="userSpaceOnUse">
<stop stop-color="#018A86"/>
<stop offset="1" stop-color="#B0CD56"/>
</linearGradient>
<clipPath id="clip0_253_219">
<rect width="56" height="56" fill="white" transform="translate(46.0001 32.2295)"/>
</clipPath>
</defs>
</svg>
