<svg width="151" height="144" viewBox="0 0 151 144" fill="none" xmlns="http://www.w3.org/2000/svg">
<circle cx="74.8331" cy="83.2295" r="58.5" stroke="url(#paint0_linear_253_198)" stroke-width="3"/>
<g clip-path="url(#clip0_253_198)">
<path d="M74.7708 68.289C75.6478 68.7953 76.6465 69.0628 77.6591 69.0628C79.2019 69.0628 80.6526 68.462 81.7437 67.371C82.2136 66.9012 82.2136 66.1394 81.7437 65.6695C81.2738 65.1997 80.5122 65.1997 80.0422 65.6695C79.4056 66.3061 78.5592 66.6567 77.6591 66.6567C77.0684 66.6567 76.4856 66.5006 75.9738 66.2052C75.3985 65.8728 74.6627 66.0703 74.3305 66.6456C73.9982 67.2209 74.1954 67.9568 74.7708 68.289Z" fill="#B0CD56"/>
<path d="M86.3404 78.1729C86.8208 78.1729 87.2996 78.1099 87.7636 77.9856C88.4054 77.8137 88.7863 77.1539 88.6143 76.5121C88.4425 75.8703 87.783 75.4891 87.1408 75.6613C86.8798 75.7312 86.6105 75.7666 86.3404 75.7666C84.9431 75.7666 83.7146 74.824 83.353 73.4744C83.1811 72.8325 82.5211 72.4513 81.8795 72.6237C81.2377 72.7957 80.8568 73.4554 81.0288 74.0972C81.3709 75.3742 82.1495 76.4461 83.1774 77.1697C82.9518 77.7542 82.8347 78.378 82.8347 79.0079C82.8347 81.314 84.3906 83.3416 86.6181 83.9384C86.7223 83.9664 86.8271 83.9798 86.9302 83.9798C87.4614 83.9798 87.9476 83.6252 88.0916 83.0877C88.2635 82.4459 87.8827 81.7862 87.2409 81.6142C86.0633 81.2987 85.2411 80.2269 85.2411 79.0079C85.2411 78.6949 85.2959 78.3847 85.4015 78.092C85.7076 78.1452 86.0216 78.1729 86.3404 78.1729Z" fill="#B0CD56"/>
<path d="M74.996 86.3516C74.3752 86.5884 74.0638 87.2835 74.3006 87.9044C74.5374 88.5253 75.2325 88.8366 75.8535 88.5998C76.3768 88.4002 76.9394 88.3713 77.4807 88.5163C78.635 88.8256 79.4413 89.8764 79.4413 91.0714C79.4413 91.7359 79.9799 92.2745 80.6444 92.2745C81.3088 92.2745 81.8475 91.7359 81.8475 91.0714C81.8475 88.7892 80.3079 86.7827 78.1036 86.1921C77.07 85.9153 75.9956 85.9705 74.996 86.3516Z" fill="#AFCD57"/>
<path d="M82.0026 102.66H68.3307C67.6662 102.66 67.1276 103.199 67.1276 103.864C67.1276 104.528 67.6662 105.067 68.3307 105.067H82.0026C82.667 105.067 83.2057 104.528 83.2057 103.864C83.2057 103.199 82.667 102.66 82.0026 102.66Z" fill="#B0CD56"/>
<path d="M93.0027 71.7754C93.0539 71.4429 93.0796 71.1059 93.0796 70.7675C93.0796 67.9068 91.2393 65.4259 88.6257 64.5321C88.6544 64.3087 88.6688 64.0826 88.6688 63.8546C88.6688 60.9462 86.3026 58.58 83.3942 58.58C83.3423 58.58 83.2904 58.5807 83.2385 58.5823C82.3618 56.5878 80.356 55.2295 78.1142 55.2295C76.8836 55.2295 75.6982 55.6319 74.7278 56.3711C69.6044 56.4818 64.8034 58.5293 61.1682 62.1646C57.429 65.9037 55.3698 70.8751 55.3698 76.1631C55.3698 80.6257 56.8195 84.8386 59.5624 88.3464C60.8467 89.9888 62.1487 91.117 63.2976 92.1123C65.345 93.8862 66.5807 94.9569 66.5807 97.7005V107.839C66.5807 108.158 66.7074 108.464 66.9331 108.69L69.1206 110.877C69.3462 111.103 69.6523 111.229 69.9713 111.229H80.362C80.6811 111.229 80.9871 111.103 81.2127 110.877L83.4002 108.69C83.6258 108.464 83.7527 108.158 83.7527 107.839V98.5019C85.0173 97.8794 86.0602 96.8761 86.7317 95.6321C89.4263 94.9751 91.3834 92.5362 91.3834 89.7039C91.3834 89.2026 91.3238 88.7113 91.2055 88.2342C92.972 87.1355 94.0977 85.1723 94.0977 83.0455C94.0977 82.1919 93.9208 81.356 93.5808 80.5851C94.5104 79.4345 95.0303 77.9871 95.0303 76.4931C95.0304 74.7074 94.2841 72.9955 93.0027 71.7754ZM64.8732 90.2937C63.807 89.3699 62.5986 88.3228 61.458 86.8641C59.0492 83.7837 57.776 80.0833 57.776 76.1631C57.776 71.5179 59.585 67.1507 62.8696 63.8661C65.8692 60.8665 69.7711 59.0976 73.9635 58.8132V96.4972H68.9158C68.5424 93.4729 66.7543 91.9235 64.8732 90.2937ZM79.8636 108.823H70.4696L68.9869 107.341V98.9036H81.3463V107.341L79.8636 108.823ZM91.3005 79.5087C90.8698 79.9051 90.7871 80.5541 91.1043 81.0459C91.4884 81.6415 91.6914 82.3329 91.6914 83.0454C91.6914 84.5621 90.7465 85.9412 89.3357 86.4905C89.3228 86.4949 89.3099 86.4994 89.2971 86.5042C88.5773 86.775 87.782 86.814 87.0393 86.615C86.3971 86.4431 85.7377 86.824 85.5658 87.4658C85.3938 88.1076 85.7747 88.7673 86.4165 88.9393C86.9314 89.0772 87.4627 89.1471 87.9956 89.1471C88.3081 89.1471 88.6181 89.1234 88.9241 89.0762C88.9591 89.2818 88.9768 89.4912 88.9768 89.7038C88.9768 91.5581 87.5928 93.1337 85.7575 93.369C85.3313 93.4237 84.9665 93.7015 84.8006 94.098C84.3387 95.2019 83.4471 96.0676 82.3375 96.4972H76.3694V58.1553C76.8847 57.8177 77.489 57.6357 78.1137 57.6357C79.2668 57.6357 80.31 58.2657 80.8694 59.2234C80.4286 59.4637 80.0223 59.7668 79.6641 60.1249C79.1941 60.5948 79.1941 61.3566 79.664 61.8264C79.8988 62.0614 80.2068 62.1789 80.5147 62.1789C80.8225 62.1789 81.1305 62.0614 81.3653 61.8266C81.733 61.4589 82.194 61.198 82.6984 61.072C82.7087 61.0695 82.719 61.0667 82.7291 61.0639C82.946 61.0125 83.1695 60.9864 83.3938 60.9864C84.9754 60.9864 86.2622 62.2731 86.2622 63.8548C86.2622 64.2376 86.1881 64.6091 86.0421 64.9587C85.8971 65.3061 85.923 65.7015 86.1123 66.027C86.3016 66.3525 86.6323 66.5706 87.006 66.6164C89.0965 66.8729 90.6729 68.6576 90.6729 70.7679C90.6729 71.1536 90.6205 71.5358 90.5171 71.9035C90.3819 72.3845 90.5581 72.8991 90.9597 73.1963C92.0172 73.9787 92.6237 75.1805 92.6237 76.4934C92.6242 77.6353 92.1417 78.7344 91.3005 79.5087Z" fill="white"/>
<path d="M51.1041 77.3662C51.7686 77.3662 52.3073 76.8275 52.3073 76.1631C52.3073 75.4986 51.7686 74.96 51.1041 74.96H48.3698C47.7053 74.96 47.1666 75.4986 47.1666 76.1631C47.1666 76.8275 47.7053 77.3662 48.3698 77.3662H51.1041Z" fill="white"/>
<path d="M51.6127 81.2288L48.9715 81.9365C48.3297 82.1084 47.9487 82.7682 48.1208 83.41C48.2647 83.9476 48.7509 84.302 49.2821 84.302C49.3852 84.302 49.4899 84.2887 49.5943 84.2607L52.2354 83.553C52.8772 83.3811 53.2581 82.7213 53.0861 82.0795C52.9143 81.4377 52.2543 81.0568 51.6127 81.2288Z" fill="white"/>
<path d="M52.2354 68.7732L49.5943 68.0655C48.9523 67.8934 48.2927 68.2744 48.1208 68.9162C47.9487 69.5581 48.3297 70.2178 48.9715 70.3897L51.6127 71.0974C51.717 71.1254 51.8217 71.1387 51.9249 71.1387C52.456 71.1387 52.9423 70.7842 53.0862 70.2467C53.2581 69.6049 52.8772 68.9451 52.2354 68.7732Z" fill="white"/>
<path d="M101.964 74.96H99.2292C98.5648 74.96 98.0261 75.4986 98.0261 76.1631C98.0261 76.8275 98.5648 77.3662 99.2292 77.3662H101.964C102.628 77.3662 103.167 76.8275 103.167 76.1631C103.167 75.4986 102.628 74.96 101.964 74.96Z" fill="white"/>
<path d="M101.362 81.9365L98.7208 81.2288C98.0793 81.0567 97.4192 81.4379 97.2473 82.0796C97.0753 82.7214 97.4562 83.3811 98.098 83.5531L100.739 84.2607C100.843 84.2887 100.948 84.3021 101.051 84.3021C101.582 84.3021 102.069 83.9475 102.213 83.41C102.385 82.7682 102.004 82.1084 101.362 81.9365Z" fill="white"/>
<path d="M98.4086 71.1388C98.5116 71.1388 98.6164 71.1255 98.7207 71.0975L101.362 70.3898C102.004 70.2179 102.385 69.5581 102.213 68.9163C102.04 68.2745 101.38 67.8932 100.739 68.0656L98.098 68.7733C97.4562 68.9452 97.0752 69.6049 97.2473 70.2468C97.3912 70.7842 97.8772 71.1388 98.4086 71.1388Z" fill="white"/>
</g>
<path d="M147.679 40.7215C148.503 40.8069 149.24 40.208 149.325 39.384L150.716 25.9558C150.801 25.1318 150.202 24.3946 149.378 24.3093C148.554 24.224 147.817 24.8228 147.732 25.6468L146.496 37.583L134.559 36.3468C133.735 36.2615 132.998 36.8603 132.913 37.6843C132.828 38.5083 133.426 39.2455 134.25 39.3309L147.679 40.7215ZM2.997 40.1659C21.2995 17.6544 46.7699 3.72949 74.829 3.72949V0.729492C45.7234 0.729492 19.4443 15.1806 0.66926 38.2733L2.997 40.1659ZM74.829 3.72949C102.888 3.72949 128.375 17.6546 146.669 40.1753L148.997 38.2837C130.23 15.1804 103.934 0.729492 74.829 0.729492V3.72949Z" fill="#B0CD56"/>
<defs>
<linearGradient id="paint0_linear_253_198" x1="74.8331" y1="23.2295" x2="74.8331" y2="143.229" gradientUnits="userSpaceOnUse">
<stop stop-color="#018A86"/>
<stop offset="1" stop-color="#B0CD56"/>
</linearGradient>
<clipPath id="clip0_253_198">
<rect width="56" height="56" fill="white" transform="translate(46.8331 55.2295)"/>
</clipPath>
</defs>
</svg>
