<svg width="151" height="144" viewBox="0 0 151 144" fill="none" xmlns="http://www.w3.org/2000/svg">
<circle cx="74.1666" cy="83.2295" r="58.5" stroke="url(#paint0_linear_253_247)" stroke-width="3"/>
<g clip-path="url(#clip0_253_247)">
<path d="M53.4714 68.0477H54.3359V72.8178C54.3359 73.506 54.8938 74.0639 55.582 74.0639C56.2702 74.0639 56.8281 73.506 56.8281 72.8178V68.0477H61.8345V75.7773C61.8345 76.4655 62.3924 77.0234 63.0806 77.0234C63.7688 77.0234 64.3267 76.4655 64.3267 75.7773V56.7217H84.0118V75.7255C84.0118 76.4137 84.5697 76.9716 85.2579 76.9716C85.9461 76.9716 86.504 76.4137 86.504 75.7255V68.0478H91.4108V72.8179C91.4108 73.5061 91.9687 74.064 92.6569 74.064C93.3451 74.064 93.903 73.5061 93.903 72.8179V68.0478H94.7673C95.4555 68.0478 96.0134 67.4899 96.0134 66.8017C96.0134 66.1135 95.4555 65.5556 94.7673 65.5556H86.504V56.7217H87.6028C88.291 56.7217 88.8489 56.1638 88.8489 55.4756C88.8489 54.7874 88.291 54.2295 87.6028 54.2295H60.636C59.9478 54.2295 59.3899 54.7874 59.3899 55.4756C59.3899 56.1638 59.9478 56.7217 60.636 56.7217H61.8345V65.5555H53.4714C52.7833 65.5555 52.2253 66.1134 52.2253 66.8016C52.2253 67.4897 52.7831 68.0477 53.4714 68.0477Z" fill="white"/>
<path d="M71.8567 63.0759C71.8567 62.3877 71.2988 61.8298 70.6106 61.8298C69.9224 61.8298 69.3645 62.3877 69.3645 63.0759V65.737C69.3645 66.4252 69.9224 66.9831 70.6106 66.9831C71.2988 66.9831 71.8567 66.4252 71.8567 65.737V63.0759Z" fill="white"/>
<path d="M78.8744 63.0759C78.8744 62.3877 78.3165 61.8298 77.6283 61.8298C76.9401 61.8298 76.3822 62.3877 76.3822 63.0759V65.737C76.3822 66.4252 76.9401 66.9831 77.6283 66.9831C78.3165 66.9831 78.8744 66.4252 78.8744 65.737V63.0759Z" fill="white"/>
<path d="M70.6106 72.1614C69.9224 72.1614 69.3645 72.7193 69.3645 73.4075V76.0686C69.3645 76.7567 69.9224 77.3147 70.6106 77.3147C71.2988 77.3147 71.8567 76.7567 71.8567 76.0686V73.4075C71.8567 72.7193 71.2989 72.1614 70.6106 72.1614Z" fill="white"/>
<path d="M77.6283 72.1614C76.9401 72.1614 76.3822 72.7193 76.3822 73.4075V76.0686C76.3822 76.7567 76.9401 77.3147 77.6283 77.3147C78.3165 77.3147 78.8744 76.7567 78.8744 76.0686V73.4075C78.8744 72.7193 78.3165 72.1614 77.6283 72.1614Z" fill="white"/>
<path d="M83.5967 83.825C83.5967 83.1368 83.0388 82.5789 82.3506 82.5789H66.0194C65.3312 82.5789 64.7733 83.1368 64.7733 83.825C64.7733 84.5131 65.3312 85.071 66.0194 85.071H82.3506C83.0388 85.071 83.5967 84.5131 83.5967 83.825Z" fill="white"/>
<path d="M65.0826 99.1782C61.9391 97.46 59.3609 94.8981 57.6271 91.7692C57.2934 91.1674 56.535 90.9497 55.9332 91.2834C55.3313 91.6169 55.1137 92.3754 55.4473 92.9773C57.4105 96.5197 60.329 99.4201 63.8874 101.365C64.0772 101.469 64.2819 101.518 64.484 101.518C64.9249 101.518 65.3522 101.283 65.5785 100.869C65.9085 100.265 65.6865 99.5083 65.0826 99.1782Z" fill="white"/>
<path d="M92.3184 91.2564C91.7162 90.9236 90.9579 91.1423 90.6253 91.7449C88.8912 94.8849 86.3085 97.4553 83.1562 99.1782C82.5523 99.5083 82.3303 100.265 82.6604 100.869C82.8867 101.283 83.314 101.518 83.7549 101.518C83.9569 101.518 84.1617 101.469 84.3514 101.365C87.9198 99.4147 90.8436 96.5047 92.8068 92.9496C93.1396 92.3472 92.9209 91.5891 92.3184 91.2564Z" fill="white"/>
<path d="M59.6969 90.6368V90.7724C59.6969 91.4606 60.2549 92.0185 60.943 92.0185C61.6312 92.0185 62.1891 91.4606 62.1891 90.7724V90.6368C62.1891 88.5222 61.1104 86.6545 59.4731 85.5525C60.3114 84.6924 60.8292 83.5195 60.8292 82.2276C60.8292 79.5961 58.6839 77.4551 56.0471 77.4551C53.4104 77.4551 51.2651 79.596 51.2651 82.2276C51.2651 83.5195 51.7829 84.6924 52.6212 85.5525C50.9839 86.6545 49.905 88.5223 49.905 90.6369V90.7725C49.905 91.4607 50.4629 92.0186 51.1511 92.0186C51.8393 92.0186 52.3972 91.4607 52.3972 90.7725V90.6369C52.3972 88.6317 54.0346 87.0003 56.0471 87.0003C58.0597 87.0003 59.6969 88.6316 59.6969 90.6368ZM53.7573 82.2275C53.7573 80.9701 54.7845 79.9472 56.0471 79.9472C57.3098 79.9472 58.337 80.9701 58.337 82.2275C58.337 83.485 57.3098 84.508 56.0471 84.508C54.7845 84.508 53.7573 83.485 53.7573 82.2275Z" fill="white"/>
<path d="M95.712 85.5523C96.5503 84.6921 97.0681 83.5192 97.0681 82.2274C97.0681 79.5959 94.9228 77.4548 92.286 77.4548C89.6493 77.4548 87.504 79.5957 87.504 82.2274C87.504 83.5192 88.0218 84.6921 88.8601 85.5523C87.2228 86.6543 86.144 88.5221 86.144 90.6366V90.7722C86.144 91.4604 86.702 92.0183 87.3901 92.0183C88.0783 92.0183 88.6362 91.4604 88.6362 90.7722V90.6366C88.6362 88.6314 90.2735 86.9999 92.286 86.9999C94.2986 86.9999 95.936 88.6313 95.936 90.6366V90.7722C95.936 91.4604 96.4939 92.0183 97.1821 92.0183C97.8702 92.0183 98.4281 91.4604 98.4281 90.7722V90.6366C98.4281 88.5221 97.3493 86.6543 95.712 85.5523ZM89.9962 82.2274C89.9962 80.97 91.0234 79.947 92.286 79.947C93.5487 79.947 94.5759 80.97 94.5759 82.2274C94.5759 83.4849 93.5487 84.5078 92.286 84.5078C91.0234 84.5078 89.9962 83.4849 89.9962 82.2274Z" fill="white"/>
<path d="M77.5454 104.225C78.3836 103.365 78.9015 102.192 78.9015 100.9C78.9015 98.2687 76.7561 96.1277 74.1194 96.1277C71.4827 96.1277 69.3373 98.2686 69.3373 100.9C69.3373 102.192 69.8552 103.365 70.6934 104.225C69.0562 105.327 67.9773 107.195 67.9773 109.309V109.445C67.9773 110.133 68.5352 110.691 69.2234 110.691C69.9116 110.691 70.4695 110.133 70.4695 109.445V109.309C70.4695 107.304 72.1068 105.673 74.1194 105.673C76.132 105.673 77.7692 107.304 77.7692 109.309V109.445C77.7692 110.133 78.3271 110.691 79.0153 110.691C79.7035 110.691 80.2614 110.133 80.2614 109.445V109.309C80.2614 107.195 79.1825 105.327 77.5454 104.225ZM71.8295 100.9C71.8295 99.6428 72.8568 98.6199 74.1194 98.6199C75.382 98.6199 76.4093 99.6428 76.4093 100.9C76.4093 102.158 75.382 103.181 74.1194 103.181C72.8568 103.181 71.8295 102.158 71.8295 100.9Z" fill="white"/>
<path d="M66.9277 82.7022C66.9277 76.7169 62.0468 71.8477 56.0472 71.8477C50.0476 71.8477 45.1666 76.7169 45.1666 82.7022C45.1666 88.6874 50.0476 93.5566 56.0472 93.5566C62.0468 93.5566 66.9277 88.6874 66.9277 82.7022ZM56.0472 91.0645C51.4218 91.0645 47.6588 87.3132 47.6588 82.7022C47.6588 78.0912 51.4218 74.3398 56.0472 74.3398C60.6726 74.3398 64.4355 78.0912 64.4355 82.7022C64.4355 87.3132 60.6726 91.0645 56.0472 91.0645Z" fill="#B0CD56"/>
<path d="M92.2861 71.8477C86.2865 71.8477 81.4055 76.7169 81.4055 82.7022C81.4055 88.6874 86.2865 93.5566 92.2861 93.5566C98.2857 93.5566 103.167 88.6875 103.167 82.7023C103.167 76.7171 98.2857 71.8477 92.2861 71.8477ZM92.2861 91.0646C87.6607 91.0646 83.8977 87.3133 83.8977 82.7023C83.8977 78.0913 87.6607 74.34 92.2861 74.34C96.9115 74.34 100.674 78.0913 100.674 82.7023C100.674 87.3133 96.9115 91.0646 92.2861 91.0646Z" fill="#B0CD56"/>
<path d="M74.1194 90.5203C68.1198 90.5203 63.2389 95.3895 63.2389 101.375C63.2389 107.36 68.1198 112.229 74.1194 112.229C80.1189 112.229 84.9999 107.36 84.9999 101.375C84.9999 95.3897 80.1189 90.5203 74.1194 90.5203ZM74.1194 109.737C69.4941 109.737 65.7311 105.986 65.7311 101.375C65.7311 96.7639 69.4941 93.0126 74.1194 93.0126C78.7447 93.0126 82.5077 96.7639 82.5077 101.375C82.5077 105.986 78.7447 109.737 74.1194 109.737Z" fill="#B0CD56"/>
</g>
<path d="M147.012 40.7215C147.836 40.8069 148.573 40.208 148.659 39.384L150.049 25.9558C150.135 25.1318 149.536 24.3946 148.712 24.3093C147.888 24.224 147.151 24.8228 147.065 25.6468L145.829 37.583L133.893 36.3468C133.069 36.2615 132.332 36.8603 132.246 37.6843C132.161 38.5083 132.76 39.2455 133.584 39.3309L147.012 40.7215ZM2.3305 40.1659C20.633 17.6544 46.1034 3.72949 74.1625 3.72949V0.729492C45.0569 0.729492 18.7778 15.1806 0.00275624 38.2733L2.3305 40.1659ZM74.1625 3.72949C102.222 3.72949 127.709 17.6546 146.002 40.1753L148.331 38.2837C129.564 15.1804 103.268 0.729492 74.1625 0.729492V3.72949Z" fill="#B0CD56"/>
<defs>
<linearGradient id="paint0_linear_253_247" x1="74.1666" y1="23.2295" x2="74.1666" y2="143.229" gradientUnits="userSpaceOnUse">
<stop stop-color="#018A86"/>
<stop offset="1" stop-color="#B0CD56"/>
</linearGradient>
<clipPath id="clip0_253_247">
<rect width="58" height="58" fill="white" transform="translate(45.1666 54.2295)"/>
</clipPath>
</defs>
</svg>
